<mxfile host="app.diagrams.net" modified="2021-04-16T07:01:58.122Z" agent="5.0 (X11)" etag="nCw3rnpUBAjPbFiBVWHl" version="14.5.10" type="github">
  <diagram name="Page-1" id="c4acf3e9-155e-7222-9cf6-157b1a14988f">
    <mxGraphModel dx="1006" dy="1257" grid="1" gridSize="10" guides="1" tooltips="1" connect="1" arrows="1" fold="1" page="1" pageScale="1" pageWidth="850" pageHeight="1100" background="#ffffff" math="0" shadow="0">
      <root>
        <mxCell id="0" />
        <mxCell id="1" parent="0" />
        <mxCell id="AnW6aUQw_me_BKyYfKA7-14" value="config" style="shape=umlFrame;whiteSpace=wrap;html=1;" vertex="1" parent="1">
          <mxGeometry x="560" y="30" width="480" height="400" as="geometry" />
        </mxCell>
        <mxCell id="AnW6aUQw_me_BKyYfKA7-2" value="main" style="shape=umlFrame;whiteSpace=wrap;html=1;" vertex="1" parent="1">
          <mxGeometry x="40" y="30" width="490" height="200" as="geometry" />
        </mxCell>
        <mxCell id="AnW6aUQw_me_BKyYfKA7-4" value="&lt;p style=&quot;margin: 0px ; margin-top: 4px ; text-align: center&quot;&gt;&lt;b&gt;App&lt;/b&gt;&lt;/p&gt;&lt;hr size=&quot;1&quot;&gt;&lt;p style=&quot;margin: 0px ; margin-left: 4px&quot;&gt;+ config:&amp;nbsp; Config&lt;br&gt;+ key_config: KeyConfig&lt;br&gt;+ simulation: Simulation&lt;br&gt;&lt;/p&gt;&lt;hr size=&quot;1&quot;&gt;&lt;p style=&quot;margin: 0px ; margin-left: 4px&quot;&gt;+ new(): Self&lt;br&gt;+ start()&lt;/p&gt;&lt;p style=&quot;margin: 0px ; margin-left: 4px&quot;&gt;+ step()&lt;br&gt;&lt;/p&gt;&lt;div&gt;&lt;br&gt;&lt;/div&gt;&lt;div&gt;&lt;br&gt;&lt;/div&gt;" style="verticalAlign=top;align=left;overflow=fill;fontSize=12;fontFamily=Helvetica;html=1;" vertex="1" parent="1">
          <mxGeometry x="320" y="60" width="140" height="140" as="geometry" />
        </mxCell>
        <mxCell id="AnW6aUQw_me_BKyYfKA7-5" value="&lt;p style=&quot;margin: 0px ; margin-top: 4px ; text-align: center&quot;&gt;&lt;b&gt;Config&lt;/b&gt;&lt;/p&gt;&lt;hr size=&quot;1&quot;&gt;&lt;p style=&quot;margin: 0px ; margin-left: 4px&quot;&gt;+ anthill_height: ConfigVar&lt;br&gt;+ anthill_width: ConfigVar&lt;br&gt;+ max_steps: ConfigVat&lt;/p&gt;&lt;p style=&quot;margin: 0px ; margin-left: 4px&quot;&gt;+ min_ph_c: ConfigVar&lt;br&gt;+ map_width: ConfigVar&lt;br&gt;+ map_height: ConfigVar&lt;br&gt;+ evaporation_rate: ConfigVar&lt;br&gt;+ ph_drop: ConfigVa&lt;/p&gt;&lt;hr size=&quot;1&quot;&gt;&lt;p style=&quot;margin: 0px ; margin-left: 4px&quot;&gt;+ init(): Self&lt;br&gt;+ vars(): Vec&amp;lt;ConfigVar&amp;gt;&lt;/p&gt;&lt;p style=&quot;margin: 0px ; margin-left: 4px&quot;&gt;+ vars_mut(): Vec&amp;lt;&amp;amp;mut ConfigVar&amp;gt;&lt;br&gt;&lt;/p&gt;" style="verticalAlign=top;align=left;overflow=fill;fontSize=12;fontFamily=Helvetica;html=1;" vertex="1" parent="1">
          <mxGeometry x="610" y="70" width="200" height="240" as="geometry" />
        </mxCell>
        <mxCell id="AnW6aUQw_me_BKyYfKA7-13" style="edgeStyle=orthogonalEdgeStyle;rounded=0;orthogonalLoop=1;jettySize=auto;html=1;exitX=0;exitY=0.5;exitDx=0;exitDy=0;entryX=1;entryY=0.75;entryDx=0;entryDy=0;endArrow=classic;endFill=1;endSize=6;" edge="1" parent="1" source="AnW6aUQw_me_BKyYfKA7-8" target="AnW6aUQw_me_BKyYfKA7-4">
          <mxGeometry relative="1" as="geometry">
            <Array as="points">
              <mxPoint x="550" y="365" />
              <mxPoint x="550" y="165" />
            </Array>
          </mxGeometry>
        </mxCell>
        <mxCell id="AnW6aUQw_me_BKyYfKA7-8" value="&lt;p style=&quot;margin: 0px ; margin-top: 4px ; text-align: center&quot;&gt;&lt;b&gt;KeyConfig&lt;/b&gt;&lt;/p&gt;&lt;hr size=&quot;1&quot;&gt;&lt;p style=&quot;margin: 0px ; margin-left: 4px&quot;&gt;+ (event_name): KeyEvent&lt;br&gt;+ ..&lt;/p&gt;&lt;hr size=&quot;1&quot;&gt;&lt;p style=&quot;margin: 0px ; margin-left: 4px&quot;&gt;&lt;/p&gt;" style="verticalAlign=top;align=left;overflow=fill;fontSize=12;fontFamily=Helvetica;html=1;" vertex="1" parent="1">
          <mxGeometry x="610" y="320" width="200" height="90" as="geometry" />
        </mxCell>
        <mxCell id="AnW6aUQw_me_BKyYfKA7-18" style="rounded=0;orthogonalLoop=1;jettySize=auto;html=1;exitX=0;exitY=0.75;exitDx=0;exitDy=0;endArrow=classic;endFill=1;endSize=6;edgeStyle=orthogonalEdgeStyle;" edge="1" parent="1" source="AnW6aUQw_me_BKyYfKA7-5">
          <mxGeometry relative="1" as="geometry">
            <mxPoint x="570" y="137.5" as="sourcePoint" />
            <mxPoint x="460" y="118" as="targetPoint" />
            <Array as="points">
              <mxPoint x="610" y="130" />
              <mxPoint x="515" y="130" />
              <mxPoint x="515" y="118" />
            </Array>
          </mxGeometry>
        </mxCell>
        <mxCell id="AnW6aUQw_me_BKyYfKA7-34" style="edgeStyle=orthogonalEdgeStyle;rounded=0;orthogonalLoop=1;jettySize=auto;html=1;endArrow=classic;endFill=1;dashed=1;entryX=0.01;entryY=0.31;entryDx=0;entryDy=0;entryPerimeter=0;" edge="1" parent="1" source="AnW6aUQw_me_BKyYfKA7-19" target="AnW6aUQw_me_BKyYfKA7-4">
          <mxGeometry relative="1" as="geometry">
            <Array as="points" />
          </mxGeometry>
        </mxCell>
        <mxCell id="AnW6aUQw_me_BKyYfKA7-44" value="controlls" style="edgeLabel;html=1;align=center;verticalAlign=middle;resizable=0;points=[];" vertex="1" connectable="0" parent="AnW6aUQw_me_BKyYfKA7-34">
          <mxGeometry x="-0.398" y="2" relative="1" as="geometry">
            <mxPoint x="13" y="2" as="offset" />
          </mxGeometry>
        </mxCell>
        <mxCell id="AnW6aUQw_me_BKyYfKA7-19" value="&lt;p style=&quot;margin: 4px 0px 0px ; text-align: center ; font-size: 15px&quot;&gt;&lt;font style=&quot;font-size: 15px&quot;&gt;&lt;b&gt;&lt;br&gt;&lt;/b&gt;&lt;/font&gt;&lt;/p&gt;&lt;p style=&quot;margin: 4px 0px 0px ; text-align: center ; font-size: 15px&quot;&gt;&lt;font style=&quot;font-size: 15px&quot;&gt;&lt;b&gt;&lt;br&gt;&lt;/b&gt;&lt;/font&gt;&lt;/p&gt;&lt;p style=&quot;margin: 4px 0px 0px ; text-align: center ; font-size: 15px&quot;&gt;&lt;br&gt;&lt;/p&gt;" style="verticalAlign=top;align=left;overflow=fill;fontSize=12;fontFamily=Helvetica;html=1;" vertex="1" parent="1">
          <mxGeometry x="100" y="62.5" width="150" height="85" as="geometry" />
        </mxCell>
        <mxCell id="AnW6aUQw_me_BKyYfKA7-22" value="Core" style="shape=umlFrame;whiteSpace=wrap;html=1;width=70;height=30;" vertex="1" parent="1">
          <mxGeometry x="-430" y="250" width="960" height="640" as="geometry" />
        </mxCell>
        <mxCell id="AnW6aUQw_me_BKyYfKA7-28" style="edgeStyle=orthogonalEdgeStyle;rounded=0;orthogonalLoop=1;jettySize=auto;html=1;entryX=0.5;entryY=1;entryDx=0;entryDy=0;endArrow=classic;endFill=1;endSize=6;" edge="1" parent="1" source="AnW6aUQw_me_BKyYfKA7-24" target="AnW6aUQw_me_BKyYfKA7-4">
          <mxGeometry relative="1" as="geometry" />
        </mxCell>
        <mxCell id="AnW6aUQw_me_BKyYfKA7-24" value="&lt;p style=&quot;margin: 0px ; margin-top: 4px ; text-align: center&quot;&gt;&lt;b&gt;Simulation&lt;/b&gt;&lt;/p&gt;&lt;hr size=&quot;1&quot;&gt;&lt;p style=&quot;margin: 0px ; margin-left: 4px&quot;&gt;+ map: Map&lt;br&gt;+ colony: Colony&lt;br&gt;+ history: SimData&lt;br&gt;+ paused: bool&lt;br&gt;+ done: bool&lt;br&gt;- config: Config&lt;br&gt;&lt;/p&gt;&lt;hr size=&quot;1&quot;&gt;&lt;p style=&quot;margin: 0px ; margin-left: 4px&quot;&gt;+ new(): Self&lt;br&gt;+ start()&lt;/p&gt;&lt;p style=&quot;margin: 0px ; margin-left: 4px&quot;&gt;+ step()&lt;br&gt;+ spawn_ant()&lt;br&gt;- decide_ant_state(Map, Config): AntState&lt;br&gt;- ant_system(&amp;amp;mut Colony, &amp;amp;mut Map, &amp;amp;Config)&lt;br&gt;- ph_system(&amp;amp;mut Map, &amp;amp;Config)&lt;br&gt;- returner_system(&amp;amp;mut Colony, &amp;amp;mut Map, &amp;amp;Config)&lt;br&gt;- follower_system(&amp;amp;mut Colony, &amp;amp;mut Map, &amp;amp;Config)&lt;/p&gt;&lt;p style=&quot;margin: 0px ; margin-left: 4px&quot;&gt;- seeker_system(&amp;amp;mut Colony, &amp;amp;mut Map, &amp;amp;Config)&lt;/p&gt;&lt;p style=&quot;margin: 0px ; margin-left: 4px&quot;&gt;- noob_system(&amp;amp;mut Colony, &amp;amp;mut Map, &amp;amp;Config)&lt;/p&gt;&lt;div&gt;&lt;br&gt;&lt;/div&gt;&lt;div&gt;&lt;br&gt;&lt;br&gt;&lt;/div&gt;" style="verticalAlign=top;align=left;overflow=fill;fontSize=12;fontFamily=Helvetica;html=1;" vertex="1" parent="1">
          <mxGeometry x="180" y="290" width="310" height="330" as="geometry" />
        </mxCell>
        <mxCell id="AnW6aUQw_me_BKyYfKA7-84" style="edgeStyle=orthogonalEdgeStyle;rounded=0;orthogonalLoop=1;jettySize=auto;html=1;exitX=1;exitY=0.25;exitDx=0;exitDy=0;entryX=0;entryY=0.25;entryDx=0;entryDy=0;endArrow=classic;endFill=1;endSize=6;" edge="1" parent="1" source="AnW6aUQw_me_BKyYfKA7-25" target="AnW6aUQw_me_BKyYfKA7-24">
          <mxGeometry relative="1" as="geometry">
            <Array as="points">
              <mxPoint x="120" y="400" />
              <mxPoint x="165" y="400" />
              <mxPoint x="165" y="373" />
            </Array>
          </mxGeometry>
        </mxCell>
        <mxCell id="AnW6aUQw_me_BKyYfKA7-25" value="&lt;p style=&quot;margin: 0px ; margin-top: 4px ; text-align: center&quot;&gt;&lt;b&gt;Map&lt;/b&gt;&lt;/p&gt;&lt;hr size=&quot;1&quot;&gt;&lt;p style=&quot;margin: 0px ; margin-left: 4px&quot;&gt;+ name:&amp;nbsp; String&lt;br&gt;+ width: i32&lt;br&gt;+ height: i32&lt;br&gt;+ tile_matrix: Vec&amp;lt;Vec&amp;lt;Tile&amp;gt;&amp;gt;&lt;br&gt;+ nest_pos: Pos&lt;br&gt;&lt;/p&gt;&lt;hr size=&quot;1&quot;&gt;&lt;p style=&quot;margin: 0px ; margin-left: 4px&quot;&gt;+ new(): Self&lt;br&gt;+ init_map(): Vec&amp;lt;Vec&amp;lt;Tile&amp;gt;&amp;gt;&lt;br&gt;&lt;/p&gt;&amp;nbsp;+ drop_ph(PhType, Pos, i32)&lt;br&gt;&amp;nbsp;+ clear(Pos)&lt;br&gt;&lt;div&gt;&amp;nbsp;+ get_neighbours(Pos) -&amp;gt; Vec&amp;lt;Tile&amp;gt;&lt;/div&gt;&lt;div&gt;&amp;nbsp;+ reached_nest(Pos): bool&lt;br&gt;&lt;/div&gt;" style="verticalAlign=top;align=left;overflow=fill;fontSize=12;fontFamily=Helvetica;html=1;" vertex="1" parent="1">
          <mxGeometry x="-90" y="320" width="210" height="218" as="geometry" />
        </mxCell>
        <mxCell id="AnW6aUQw_me_BKyYfKA7-45" value="1" style="text;html=1;strokeColor=none;fillColor=none;align=center;verticalAlign=middle;whiteSpace=wrap;rounded=0;" vertex="1" parent="1">
          <mxGeometry x="400" y="205" width="20" height="10" as="geometry" />
        </mxCell>
        <mxCell id="AnW6aUQw_me_BKyYfKA7-54" value="1" style="text;html=1;strokeColor=none;fillColor=none;align=center;verticalAlign=middle;whiteSpace=wrap;rounded=0;" vertex="1" parent="1">
          <mxGeometry x="470" y="150" width="20" height="10" as="geometry" />
        </mxCell>
        <mxCell id="AnW6aUQw_me_BKyYfKA7-55" value="1" style="text;html=1;strokeColor=none;fillColor=none;align=center;verticalAlign=middle;whiteSpace=wrap;rounded=0;" vertex="1" parent="1">
          <mxGeometry x="470" y="100" width="20" height="10" as="geometry" />
        </mxCell>
        <mxCell id="AnW6aUQw_me_BKyYfKA7-57" value="1..*" style="text;html=1;strokeColor=none;fillColor=none;align=center;verticalAlign=middle;whiteSpace=wrap;rounded=0;" vertex="1" parent="1">
          <mxGeometry x="570" y="115" width="20" height="10" as="geometry" />
        </mxCell>
        <mxCell id="AnW6aUQw_me_BKyYfKA7-59" value="1..*" style="text;html=1;strokeColor=none;fillColor=none;align=center;verticalAlign=middle;whiteSpace=wrap;rounded=0;" vertex="1" parent="1">
          <mxGeometry x="570" y="350" width="20" height="10" as="geometry" />
        </mxCell>
        <mxCell id="AnW6aUQw_me_BKyYfKA7-62" value="&lt;b&gt;&lt;font style=&quot;font-size: 16px&quot;&gt;Controller&lt;/font&gt;&lt;/b&gt;" style="text;html=1;strokeColor=none;fillColor=none;align=center;verticalAlign=middle;whiteSpace=wrap;rounded=0;" vertex="1" parent="1">
          <mxGeometry x="155" y="95" width="40" height="20" as="geometry" />
        </mxCell>
        <mxCell id="AnW6aUQw_me_BKyYfKA7-69" style="edgeStyle=orthogonalEdgeStyle;rounded=0;orthogonalLoop=1;jettySize=auto;html=1;exitX=0;exitY=0.5;exitDx=0;exitDy=0;endArrow=diamondThin;endFill=0;endSize=20;" edge="1" parent="1" source="AnW6aUQw_me_BKyYfKA7-68" target="AnW6aUQw_me_BKyYfKA7-5">
          <mxGeometry relative="1" as="geometry" />
        </mxCell>
        <mxCell id="AnW6aUQw_me_BKyYfKA7-68" value="&lt;p style=&quot;margin: 0px ; margin-top: 4px ; text-align: center&quot;&gt;&lt;b&gt;ConfigVar&lt;/b&gt;&lt;/p&gt;&lt;hr size=&quot;1&quot;&gt;&lt;p style=&quot;margin: 0px ; margin-left: 4px&quot;&gt;+ name: &amp;amp;&#39;static str,&lt;br&gt;+ min: i32,&lt;/p&gt;&lt;p style=&quot;margin: 0px ; margin-left: 4px&quot;&gt;+ max: i32,&lt;br&gt;&lt;/p&gt;&lt;hr size=&quot;1&quot;&gt;&lt;p style=&quot;margin: 0px ; margin-left: 4px&quot;&gt;+ new(): Self&lt;/p&gt;" style="verticalAlign=top;align=left;overflow=fill;fontSize=12;fontFamily=Helvetica;html=1;" vertex="1" parent="1">
          <mxGeometry x="870" y="70" width="150" height="120" as="geometry" />
        </mxCell>
        <mxCell id="AnW6aUQw_me_BKyYfKA7-70" value="0..*" style="text;html=1;strokeColor=none;fillColor=none;align=center;verticalAlign=middle;whiteSpace=wrap;rounded=0;" vertex="1" parent="1">
          <mxGeometry x="850" y="115" width="20" height="10" as="geometry" />
        </mxCell>
        <mxCell id="AnW6aUQw_me_BKyYfKA7-71" value="0..*" style="text;html=1;strokeColor=none;fillColor=none;align=center;verticalAlign=middle;whiteSpace=wrap;rounded=0;" vertex="1" parent="1">
          <mxGeometry x="810" y="170" width="20" height="10" as="geometry" />
        </mxCell>
        <mxCell id="AnW6aUQw_me_BKyYfKA7-73" value="&lt;font style=&quot;font-size: 10px&quot;&gt;Sämtliche Keys, die in der SImulation genutzt werden können&lt;/font&gt;" style="shape=note;whiteSpace=wrap;html=1;backgroundOutline=1;darkOpacity=0.05;size=11;fillColor=#fff2cc;strokeColor=#d6b656;" vertex="1" parent="1">
          <mxGeometry x="860" y="335" width="130" height="60" as="geometry" />
        </mxCell>
        <mxCell id="AnW6aUQw_me_BKyYfKA7-74" value="" style="endArrow=none;html=1;endSize=6;entryX=1;entryY=0.5;entryDx=0;entryDy=0;exitX=0;exitY=0.5;exitDx=0;exitDy=0;exitPerimeter=0;dashed=1;endFill=0;" edge="1" parent="1" source="AnW6aUQw_me_BKyYfKA7-73" target="AnW6aUQw_me_BKyYfKA7-8">
          <mxGeometry width="50" height="50" relative="1" as="geometry">
            <mxPoint x="850" y="460" as="sourcePoint" />
            <mxPoint x="900" y="410" as="targetPoint" />
          </mxGeometry>
        </mxCell>
        <mxCell id="AnW6aUQw_me_BKyYfKA7-83" style="edgeStyle=orthogonalEdgeStyle;rounded=0;orthogonalLoop=1;jettySize=auto;html=1;exitX=1;exitY=0.5;exitDx=0;exitDy=0;entryX=-0.002;entryY=0.219;entryDx=0;entryDy=0;entryPerimeter=0;endArrow=classic;endFill=1;endSize=6;" edge="1" parent="1" source="AnW6aUQw_me_BKyYfKA7-76" target="AnW6aUQw_me_BKyYfKA7-25">
          <mxGeometry relative="1" as="geometry" />
        </mxCell>
        <mxCell id="AnW6aUQw_me_BKyYfKA7-89" style="edgeStyle=orthogonalEdgeStyle;rounded=0;orthogonalLoop=1;jettySize=auto;html=1;endArrow=classic;endFill=1;endSize=6;" edge="1" parent="1" source="AnW6aUQw_me_BKyYfKA7-76" target="AnW6aUQw_me_BKyYfKA7-77">
          <mxGeometry relative="1" as="geometry" />
        </mxCell>
        <mxCell id="AnW6aUQw_me_BKyYfKA7-76" value="&lt;p style=&quot;margin: 0px ; margin-top: 4px ; text-align: center&quot;&gt;&lt;b&gt;Pos&lt;/b&gt;&lt;/p&gt;&lt;hr size=&quot;1&quot;&gt;&lt;p style=&quot;margin: 0px ; margin-left: 4px&quot;&gt;+ x:&amp;nbsp; i32&lt;br&gt;+ y: i32&lt;br&gt;&lt;/p&gt;&lt;hr size=&quot;1&quot;&gt;&lt;p style=&quot;margin: 0px ; margin-left: 4px&quot;&gt;+ new(): Self&lt;br&gt;&lt;/p&gt;&lt;p style=&quot;margin: 0px ; margin-left: 4px&quot;&gt;+ dist(Pos, Pos): f32&lt;br&gt;&lt;/p&gt;&lt;div&gt;&lt;br&gt;&lt;/div&gt;&lt;div&gt;&lt;br&gt;&lt;/div&gt;" style="verticalAlign=top;align=left;overflow=fill;fontSize=12;fontFamily=Helvetica;html=1;" vertex="1" parent="1">
          <mxGeometry x="-350" y="281" width="140" height="114" as="geometry" />
        </mxCell>
        <mxCell id="AnW6aUQw_me_BKyYfKA7-80" style="edgeStyle=orthogonalEdgeStyle;rounded=0;orthogonalLoop=1;jettySize=auto;html=1;entryX=-0.002;entryY=0.401;entryDx=0;entryDy=0;entryPerimeter=0;endArrow=diamondThin;endFill=1;endSize=20;" edge="1" parent="1" source="AnW6aUQw_me_BKyYfKA7-77" target="AnW6aUQw_me_BKyYfKA7-25">
          <mxGeometry relative="1" as="geometry" />
        </mxCell>
        <mxCell id="AnW6aUQw_me_BKyYfKA7-77" value="&lt;p style=&quot;margin: 0px ; margin-top: 4px ; text-align: center&quot;&gt;&lt;b&gt;Tile&lt;/b&gt;&lt;/p&gt;&lt;hr size=&quot;1&quot;&gt;&lt;p style=&quot;margin: 0px ; margin-left: 4px&quot;&gt;+ tile_type: TileType&lt;br&gt;+ pheromone: Option&amp;lt;Pheromone &amp;gt;&lt;br&gt;+ pos: Pos&lt;br&gt;&lt;/p&gt;&lt;hr size=&quot;1&quot;&gt;&lt;p style=&quot;margin: 0px ; margin-left: 4px&quot;&gt;+ new(): Self&lt;br&gt;&lt;/p&gt;&lt;p style=&quot;margin: 0px ; margin-left: 4px&quot;&gt;+ dist(Pos, Pos): f32&lt;br&gt;&lt;/p&gt;&lt;div&gt;&lt;br&gt;&lt;/div&gt;&lt;div&gt;&lt;br&gt;&lt;/div&gt;" style="verticalAlign=top;align=left;overflow=fill;fontSize=12;fontFamily=Helvetica;html=1;" vertex="1" parent="1">
          <mxGeometry x="-380" y="451" width="200" height="128" as="geometry" />
        </mxCell>
        <mxCell id="AnW6aUQw_me_BKyYfKA7-81" style="edgeStyle=orthogonalEdgeStyle;rounded=0;orthogonalLoop=1;jettySize=auto;html=1;exitX=0.5;exitY=0;exitDx=0;exitDy=0;entryX=0.452;entryY=1;entryDx=0;entryDy=0;entryPerimeter=0;endArrow=classic;endFill=1;endSize=6;" edge="1" parent="1" source="AnW6aUQw_me_BKyYfKA7-78" target="AnW6aUQw_me_BKyYfKA7-77">
          <mxGeometry relative="1" as="geometry" />
        </mxCell>
        <mxCell id="AnW6aUQw_me_BKyYfKA7-78" value="&lt;p style=&quot;margin: 0px ; margin-top: 4px ; text-align: center&quot;&gt;&lt;b&gt;Pheromone&lt;/b&gt;&lt;/p&gt;&lt;hr size=&quot;1&quot;&gt;&lt;p style=&quot;margin: 0px ; margin-left: 4px&quot;&gt;+ ph_type: PhType&lt;br&gt;+ concentration: i32&lt;br&gt;&lt;/p&gt;&lt;hr size=&quot;1&quot;&gt;&lt;p style=&quot;margin: 0px ; margin-left: 4px&quot;&gt;+ conc(): i32&lt;br&gt;&lt;/p&gt;&lt;div&gt;&lt;br&gt;&lt;/div&gt;&lt;div&gt;&lt;br&gt;&lt;/div&gt;" style="verticalAlign=top;align=left;overflow=fill;fontSize=12;fontFamily=Helvetica;html=1;" vertex="1" parent="1">
          <mxGeometry x="-360" y="650" width="140" height="90" as="geometry" />
        </mxCell>
        <mxCell id="AnW6aUQw_me_BKyYfKA7-88" style="edgeStyle=orthogonalEdgeStyle;rounded=0;orthogonalLoop=1;jettySize=auto;html=1;entryX=0;entryY=0.5;entryDx=0;entryDy=0;endArrow=diamondThin;endFill=1;endSize=20;" edge="1" parent="1" source="AnW6aUQw_me_BKyYfKA7-85" target="AnW6aUQw_me_BKyYfKA7-86">
          <mxGeometry relative="1" as="geometry" />
        </mxCell>
        <mxCell id="AnW6aUQw_me_BKyYfKA7-85" value="&lt;p style=&quot;margin: 0px ; margin-top: 4px ; text-align: center&quot;&gt;&lt;b&gt;AntCollection&lt;/b&gt;&lt;/p&gt;&lt;hr size=&quot;1&quot;&gt;&lt;p style=&quot;margin: 0px ; margin-left: 4px&quot;&gt;+ id: Vec&amp;lt;i32&amp;gt;&lt;br&gt;+ speed: Vec&amp;lt;i32&amp;gt;&lt;br&gt;+ position: Vec&amp;lt;Pos&amp;gt;&lt;br&gt;+ direction: Vec&amp;lt;AntDirection&amp;gt;&lt;br&gt;+ state: Vec&amp;lt;AntState&amp;gt;&lt;br&gt;+ travel: Vec&amp;lt;Vec&amp;lt;Pos&amp;gt;&amp;gt;&lt;br&gt;+ steps: Vec&amp;lt;i32&amp;gt;&lt;br&gt;&lt;/p&gt;&lt;hr size=&quot;1&quot;&gt;&lt;p style=&quot;margin: 0px ; margin-left: 4px&quot;&gt;+ state_cound(): HaspMap&amp;lt;AntState, i32&amp;gt;&lt;br&gt;+ push()&lt;br&gt;&lt;/p&gt;&lt;div&gt;&lt;br&gt;&lt;/div&gt;&lt;div&gt;&lt;br&gt;&lt;/div&gt;" style="verticalAlign=top;align=left;overflow=fill;fontSize=12;fontFamily=Helvetica;html=1;" vertex="1" parent="1">
          <mxGeometry x="-80" y="650" width="240" height="180" as="geometry" />
        </mxCell>
        <mxCell id="AnW6aUQw_me_BKyYfKA7-87" style="edgeStyle=orthogonalEdgeStyle;rounded=0;orthogonalLoop=1;jettySize=auto;html=1;endArrow=classic;endFill=1;endSize=6;" edge="1" parent="1" source="AnW6aUQw_me_BKyYfKA7-86" target="AnW6aUQw_me_BKyYfKA7-24">
          <mxGeometry relative="1" as="geometry" />
        </mxCell>
        <mxCell id="AnW6aUQw_me_BKyYfKA7-86" value="&lt;p style=&quot;margin: 0px ; margin-top: 4px ; text-align: center&quot;&gt;&lt;b&gt;Colony&lt;/b&gt;&lt;/p&gt;&lt;hr size=&quot;1&quot;&gt;&lt;p style=&quot;margin: 0px ; margin-left: 4px&quot;&gt;+ ants: AntCollection&lt;br&gt;+ food: i32&lt;br&gt;&lt;/p&gt;&lt;hr size=&quot;1&quot;&gt;&lt;p style=&quot;margin: 0px ; margin-left: 4px&quot;&gt;+ add_ant()&lt;br&gt;&lt;/p&gt;&lt;div&gt;&lt;br&gt;&lt;/div&gt;&lt;div&gt;&lt;br&gt;&lt;/div&gt;" style="verticalAlign=top;align=left;overflow=fill;fontSize=12;fontFamily=Helvetica;html=1;" vertex="1" parent="1">
          <mxGeometry x="265" y="690" width="140" height="100" as="geometry" />
        </mxCell>
        <mxCell id="AnW6aUQw_me_BKyYfKA7-90" value="&lt;div&gt;1&lt;/div&gt;" style="text;html=1;strokeColor=none;fillColor=none;align=center;verticalAlign=middle;whiteSpace=wrap;rounded=0;" vertex="1" parent="1">
          <mxGeometry x="340" y="630" width="20" height="10" as="geometry" />
        </mxCell>
        <mxCell id="AnW6aUQw_me_BKyYfKA7-92" value="&lt;div&gt;1&lt;/div&gt;" style="text;html=1;strokeColor=none;fillColor=none;align=center;verticalAlign=middle;whiteSpace=wrap;rounded=0;" vertex="1" parent="1">
          <mxGeometry x="340" y="680" width="20" height="10" as="geometry" />
        </mxCell>
        <mxCell id="AnW6aUQw_me_BKyYfKA7-93" value="&lt;div&gt;1&lt;/div&gt;" style="text;html=1;strokeColor=none;fillColor=none;align=center;verticalAlign=middle;whiteSpace=wrap;rounded=0;" vertex="1" parent="1">
          <mxGeometry x="160" y="720" width="20" height="10" as="geometry" />
        </mxCell>
        <mxCell id="AnW6aUQw_me_BKyYfKA7-94" value="&lt;div&gt;1&lt;/div&gt;" style="text;html=1;strokeColor=none;fillColor=none;align=center;verticalAlign=middle;whiteSpace=wrap;rounded=0;" vertex="1" parent="1">
          <mxGeometry x="240" y="720" width="20" height="10" as="geometry" />
        </mxCell>
        <mxCell id="AnW6aUQw_me_BKyYfKA7-95" value="&lt;div&gt;1&lt;/div&gt;" style="text;html=1;strokeColor=none;fillColor=none;align=center;verticalAlign=middle;whiteSpace=wrap;rounded=0;" vertex="1" parent="1">
          <mxGeometry x="-280" y="590" width="20" height="10" as="geometry" />
        </mxCell>
        <mxCell id="AnW6aUQw_me_BKyYfKA7-96" value="&lt;div&gt;1&lt;/div&gt;" style="text;html=1;strokeColor=none;fillColor=none;align=center;verticalAlign=middle;whiteSpace=wrap;rounded=0;" vertex="1" parent="1">
          <mxGeometry x="-280" y="630" width="20" height="10" as="geometry" />
        </mxCell>
        <mxCell id="AnW6aUQw_me_BKyYfKA7-97" value="&lt;div&gt;1&lt;/div&gt;" style="text;html=1;strokeColor=none;fillColor=none;align=center;verticalAlign=middle;whiteSpace=wrap;rounded=0;" vertex="1" parent="1">
          <mxGeometry x="-270" y="400" width="20" height="10" as="geometry" />
        </mxCell>
        <mxCell id="AnW6aUQw_me_BKyYfKA7-98" value="&lt;div&gt;1&lt;/div&gt;" style="text;html=1;strokeColor=none;fillColor=none;align=center;verticalAlign=middle;whiteSpace=wrap;rounded=0;" vertex="1" parent="1">
          <mxGeometry x="-270" y="430" width="20" height="10" as="geometry" />
        </mxCell>
        <mxCell id="AnW6aUQw_me_BKyYfKA7-99" value="&lt;div&gt;1&lt;/div&gt;" style="text;html=1;strokeColor=none;fillColor=none;align=center;verticalAlign=middle;whiteSpace=wrap;rounded=0;" vertex="1" parent="1">
          <mxGeometry x="-120" y="350" width="20" height="10" as="geometry" />
        </mxCell>
        <mxCell id="AnW6aUQw_me_BKyYfKA7-100" value="&lt;div&gt;1&lt;/div&gt;" style="text;html=1;strokeColor=none;fillColor=none;align=center;verticalAlign=middle;whiteSpace=wrap;rounded=0;" vertex="1" parent="1">
          <mxGeometry x="-210" y="320" width="20" height="10" as="geometry" />
        </mxCell>
        <mxCell id="AnW6aUQw_me_BKyYfKA7-101" value="&lt;div&gt;1&lt;/div&gt;" style="text;html=1;strokeColor=none;fillColor=none;align=center;verticalAlign=middle;whiteSpace=wrap;rounded=0;" vertex="1" parent="1">
          <mxGeometry x="-180" y="500" width="20" height="10" as="geometry" />
        </mxCell>
        <mxCell id="AnW6aUQw_me_BKyYfKA7-102" value="0..*" style="text;html=1;strokeColor=none;fillColor=none;align=center;verticalAlign=middle;whiteSpace=wrap;rounded=0;" vertex="1" parent="1">
          <mxGeometry x="-120" y="385" width="20" height="10" as="geometry" />
        </mxCell>
        <mxCell id="AnW6aUQw_me_BKyYfKA7-104" value="&lt;div&gt;1&lt;/div&gt;" style="text;html=1;strokeColor=none;fillColor=none;align=center;verticalAlign=middle;whiteSpace=wrap;rounded=0;" vertex="1" parent="1">
          <mxGeometry x="120" y="385" width="20" height="10" as="geometry" />
        </mxCell>
        <mxCell id="AnW6aUQw_me_BKyYfKA7-105" value="&lt;div&gt;1&lt;/div&gt;" style="text;html=1;strokeColor=none;fillColor=none;align=center;verticalAlign=middle;whiteSpace=wrap;rounded=0;" vertex="1" parent="1">
          <mxGeometry x="160" y="360" width="20" height="10" as="geometry" />
        </mxCell>
        <mxCell id="AnW6aUQw_me_BKyYfKA7-106" value="&lt;div&gt;1&lt;/div&gt;" style="text;html=1;strokeColor=none;fillColor=none;align=center;verticalAlign=middle;whiteSpace=wrap;rounded=0;" vertex="1" parent="1">
          <mxGeometry x="340" y="271" width="20" height="10" as="geometry" />
        </mxCell>
      </root>
    </mxGraphModel>
  </diagram>
</mxfile>
